<?xml version="1.0" encoding="UTF-8" standalone="no"?>
<svg
   xmlns:dc="http://purl.org/dc/elements/1.1/"
   xmlns:cc="http://creativecommons.org/ns#"
   xmlns:rdf="http://www.w3.org/1999/02/22-rdf-syntax-ns#"
   xmlns:svg="http://www.w3.org/2000/svg"
   xmlns="http://www.w3.org/2000/svg"
   viewBox="0 0 1140.3066 597.33331"
   height="597.33331"
   width="1140.3066"
   xml:space="preserve"
   id="svg2"
   version="1.1"><metadata
     id="metadata8"><rdf:RDF><cc:Work
         rdf:about=""><dc:format>image/svg+xml</dc:format><dc:type
           rdf:resource="http://purl.org/dc/dcmitype/StillImage" /></cc:Work></rdf:RDF></metadata><defs
     id="defs6" /><g
     transform="matrix(1.3333333,0,0,-1.3333333,0,597.33333)"
     id="g10"><g
       transform="scale(0.1)"
       id="g12"><path
         id="path14"
         style="fill:#fffbe9;fill-opacity:1;fill-rule:nonzero;stroke:none"
         d="m 5729.35,3500.25 c -92.62,106.95 -214.4,160.46 -365.43,160.46 -97.09,0 -187.9,-23.38 -272.38,-70.11 -84.53,-46.78 -162.74,-115.97 -234.64,-207.66 v 1076.05 c 0,5.4 -6.74,10.79 -20.22,16.19 -13.48,5.39 -22.92,6.27 -28.32,2.69 -52.16,-28.78 -126.75,-61.14 -223.84,-97.09 -97.09,-35.98 -176.22,-59.33 -237.33,-70.11 -10.78,-1.82 -16.18,-6.75 -16.18,-14.84 0,-8.09 5.4,-11.25 16.18,-9.44 59.34,10.79 97.51,13.91 114.62,9.44 17.07,-4.51 30.09,-15.76 39.11,-33.71 7.16,-14.41 12.55,-35.52 16.18,-63.38 3.58,-27.89 5.39,-64.3 5.39,-109.22 V 2304.18 c 0,-9.02 0.89,-15.3 2.7,-18.88 1.77,-3.58 4.47,-5.39 8.09,-5.39 8.98,0 31.9,12.55 68.77,37.75 36.83,25.16 75.05,56.64 114.62,94.4 55.71,-50.36 116.85,-88.58 183.39,-114.62 66.49,-26.04 136.61,-39.11 210.35,-39.11 224.73,0 407.24,75.94 547.47,227.89 140.24,151.91 210.36,351.94 210.36,600.06 0,168.97 -46.31,306.98 -138.89,413.97 m -728.16,-12.14 c 51.24,30.55 105.6,45.85 163.16,45.85 111.46,0 199.11,-53.52 262.95,-160.46 63.8,-106.99 95.74,-252.16 95.74,-435.55 0,-212.17 -27.9,-372.17 -83.61,-480.05 -55.74,-107.87 -138.46,-161.81 -248.11,-161.81 -66.54,0 -128.56,21.57 -186.08,64.72 -57.57,43.15 -106.99,102.49 -148.34,178 v 811.76 c 44.93,61.1 93.05,106.95 144.29,137.54" /><path
         id="path16"
         style="fill:#fffbe9;fill-opacity:1;fill-rule:nonzero;stroke:none"
         d="m 6993.37,3568.52 c -15.13,43.22 -43.47,74.55 -85.09,93.96 -66.88,31.18 -142.21,21.76 -217.04,-31.97 -74.82,-53.78 -134.31,-116.05 -190.44,-236.42 -24.56,-52.67 -46.03,-118.89 -58.02,-180.85 v 42.94 c 0,79.1 -11.71,158.19 -35.05,237.33 -23.4,79.09 -49.49,132.15 -78.23,159.11 -3.62,3.59 -6.31,5.82 -8.08,6.75 -1.82,0.88 -4.52,-0.48 -8.1,-4.05 -21.57,-19.8 -73.27,-52.17 -155.07,-97.09 -81.83,-44.96 -138.88,-73.75 -171.25,-86.3 -3.62,-1.81 -5.39,-4.04 -5.39,-6.74 0,-2.7 1.77,-5.86 5.39,-9.44 43.15,-39.57 74.59,-75.98 94.39,-109.22 19.77,-33.29 29.68,-65.19 29.68,-95.75 v -644.55 c 0,-44.96 -0.94,-83.18 -2.71,-114.63 -1.81,-31.46 -4.51,-57.97 -8.09,-79.54 -5.39,-37.76 -15.76,-64.31 -31.01,-79.56 -5,-5 -11.87,-9.17 -20.6,-12.53 -0.04,-0.01 -0.07,-0.03 -0.11,-0.04 -2.54,-0.98 -5.31,-1.85 -8.16,-2.7 -0.85,-0.23 -1.7,-0.48 -2.57,-0.71 -2.44,-0.66 -4.99,-1.26 -7.63,-1.83 -1.64,-0.34 -3.34,-0.65 -5.06,-0.96 -2.21,-0.4 -4.44,-0.8 -6.79,-1.14 -2.89,-0.42 -5.92,-0.78 -9.01,-1.09 -1.48,-0.16 -2.87,-0.35 -4.4,-0.49 -10.21,-0.91 -21.42,-1.38 -33.7,-1.38 -10.81,0 -16.22,-4.05 -16.22,-12.16 0,-8.11 5.41,-12.17 16.22,-12.17 h 17.9 50.46 c 0.1,0 0.23,0 0.32,0 h 0.25 c 29.74,0 78.82,0.89 147.33,2.71 21.38,0.87 39.32,1.54 53.88,2 l -0.01,0.02 c 14.33,0.44 25.31,0.66 32.86,0.66 h 31.01 c 8.98,0 27.86,-0.46 56.64,-1.34 28.75,-0.93 80.91,-1.35 156.42,-1.35 46.73,-1.81 77.28,-2.7 91.69,-2.7 h 26.97 c 10.79,0 16.19,4.05 16.19,12.14 0,8.09 -5.4,12.13 -16.19,12.13 h -191.48 v 655.35 c 0,17.72 0.15,34.34 0.36,50.44 0,0 -3.38,150.99 27.61,220.16 22.87,46.49 48.04,60.19 82.4,77.67 34.37,17.43 94.8,19.82 177.8,15.5 82.22,-2.17 139.98,5.29 173.25,22.34 33.29,17.03 58.91,44.87 76.94,83.54 21.47,46.04 24.65,90.69 9.54,133.95" /><path
         id="path18"
         style="fill:#fffbe9;fill-opacity:1;fill-rule:nonzero;stroke:none"
         d="m 8538.81,3633.29 h -21.58 c -10.79,0 -33.29,-0.93 -67.42,-2.7 -52.17,-1.81 -88.58,-2.71 -109.23,-2.71 h -44.5 -25.61 c -11.72,0 -32.83,0.9 -63.38,2.71 -48.55,0 -84.07,0.41 -106.53,1.35 -22.5,0.88 -41.8,1.35 -57.98,1.35 -10.79,0 -16.18,-4.05 -16.18,-12.15 0,-8.09 5.39,-12.13 16.18,-12.13 91.69,0 148.75,-34.17 171.25,-102.48 22.46,-68.35 6.74,-163.63 -47.19,-285.87 L 7932,2689.37 7643.44,3336.62 c -26.97,57.52 -45.85,102.03 -56.64,133.5 -10.78,31.43 -15.3,56.18 -13.48,74.17 1.77,23.34 12.14,39.99 31.01,49.88 18.87,9.87 54.35,14.84 106.53,14.84 10.79,0 16.18,4.04 16.18,12.13 0,8.1 -5.39,12.15 -16.18,12.15 h -78.21 c -37.77,0 -101.6,-0.93 -191.49,-2.7 -59.32,-1.81 -98.89,-2.71 -118.65,-2.71 h -37.76 -47.19 c -22.51,0 -42.52,0.9 -100.04,2.71 -37.75,1.77 -42.93,2.7 -55.54,2.7 h -24.27 c -8.97,0 -13.48,-4.05 -13.48,-12.15 0,-8.09 4.51,-12.13 13.48,-12.13 74.31,-5.67 80.47,-17.99 116.47,-59.33 35.94,-41.39 88.99,-139.35 159.11,-293.96 l 428.81,-949.31 -29.67,-67.42 c -22.06,-50.69 -44.43,-92.18 -67.16,-124.64 -8.98,-11.98 -20.38,-25 -31.48,-36.09 -34.33,-34.33 -72.46,-53.99 -114.42,-59.13 -41.96,-5.05 -99.12,10.2 -183.02,45.78 -83.9,33.06 -146.21,47.05 -186.89,41.95 -40.69,-5.06 -77.53,-24.13 -110.6,-57.22 -39.4,-39.38 -59.42,-84.2 -60.07,-134.43 -0.63,-50.22 16.84,-93.12 52.45,-128.72 67.87,-53.33 151.78,-61.85 241.92,-45.97 88.44,20.41 175.6,66.71 278.57,169.69 55.17,55.17 113.5,133.05 149.9,204.28 h -0.05 c 20,36.81 39.33,76.31 57.82,119.11 l 431.51,970.88 c 62.91,142.01 122.24,245.42 177.99,310.14 55.71,64.72 112.34,96.15 169.91,94.39 8.96,0 13.48,4.04 13.48,12.13 0,8.1 -4.52,12.15 -13.48,12.15" /><path
         id="path20"
         style="fill:#fffbe9;fill-opacity:1;fill-rule:nonzero;stroke:none"
         d="m 4791.36,35.1016 h 27 c 8.99,0 28.77,-0.461 59.4,-1.3516 30.59,-0.918 84.59,-1.3398 162.01,-1.3398 50.36,-1.8204 83.23,-2.711 98.54,-2.711 h 28.35 c 10.8,0 16.2,4.0508 16.2,12.1524 0,8.0976 -5.4,12.1601 -16.2,12.1601 h -148.5 V 1071.91 c 55.78,75.59 107.07,128.24 153.9,157.95 46.79,29.69 100.79,44.55 162,44.55 84.59,0 147.15,-32.86 187.65,-98.56 40.5,-65.73 60.75,-166.98 60.75,-303.748 l 2.71,-548.09 c 0,-120.621 -7.22,-195.75 -21.6,-225.4612 -14.44,-29.6992 -56.7,-44.5391 -126.91,-44.5391 -10.8,0 -16.2,-4.0625 -16.2,-12.1601 0,-8.1016 5.4,-12.1524 16.2,-12.1524 h 58.05 c 22.49,0 56.24,0.8906 101.25,2.711 28.78,1.7617 49.02,2.6914 60.75,2.6914 h 25.65 c 8.99,0 29.7,-0.461 62.1,-1.3516 32.41,-0.918 90.87,-1.3398 175.5,-1.3398 54.01,-1.8204 89.1,-2.711 105.3,-2.711 h 29.7 c 10.8,0 16.2,4.0508 16.2,12.1524 0,8.0976 -5.4,12.1601 -16.2,12.1601 -63.03,-1.8203 -102.18,10.3281 -117.45,36.4375 -15.31,26.0818 -22.95,77.8398 -22.95,155.2618 v 826.199 c 55.77,77.36 107.07,130.49 153.9,159.29 46.79,28.77 100.79,43.21 162,43.21 84.59,0 148.93,-33.75 193.06,-101.25 44.08,-67.5 67.04,-167.86 68.84,-301.058 v -548.09 c 0,-120.621 -7.68,-195.75 -22.95,-225.4612 -15.31,-29.6992 -59.86,-44.5391 -133.65,-44.5391 -10.8,0 -16.2,-4.0625 -16.2,-12.1601 0,-8.1016 5.4,-12.1524 16.2,-12.1524 h 58.05 c 22.49,0 57.12,0.8906 103.95,2.711 28.77,1.7617 49.02,2.6914 60.76,2.6914 h 25.64 71.55 c 27.89,0 72.44,-0.9297 133.66,-2.6914 52.18,-1.8204 89.51,-2.711 112.05,-2.711 h 52.64 c 10.8,0 16.2,4.0508 16.2,12.1524 0,8.0976 -5.4,12.1601 -16.2,12.1601 -55.81,-1.8203 -90.91,9.4375 -105.3,33.75 -14.42,24.2893 -21.6,76.9373 -21.6,157.9493 v 615.59 c 0,181.789 -35.56,318.149 -106.65,409.049 -71.12,90.87 -177.78,136.35 -319.95,136.35 -88.21,0 -172.8,-24.75 -253.8,-74.25 -81,-49.53 -160.23,-126.48 -237.6,-230.85 -23.41,98.97 -70.19,174.58 -140.4,226.8 -70.19,52.19 -158.41,78.3 -264.6,78.3 -90.03,0 -174.61,-24.75 -253.8,-74.25 -79.23,-49.53 -157.53,-126.48 -234.9,-230.85 0,54 -10.8,110.24 -32.4,168.75 -21.59,58.47 -46.83,101.25 -75.6,128.26 -3.63,3.58 -6.33,5.82 -8.09,6.74 -1.82,0.89 -4.52,-0.45 -8.11,-4.05 -21.6,-19.83 -74.25,-52.22 -157.95,-97.2 -83.7,-45 -142.67,-73.82 -176.84,-86.4 -3.64,-1.81 -5.4,-4.04 -5.4,-6.75 0,-2.69 1.76,-5.86 5.4,-9.44 43.19,-39.62 74.66,-76.07 94.49,-109.36 19.79,-33.33 29.7,-65.26 29.7,-95.849 V 351 c 0,-124.199 -7.21,-204.781 -21.6,-241.648 -14.43,-36.9106 -50.41,-55.3403 -107.99,-55.3403 -10.81,0 -16.21,-4.0625 -16.21,-12.1601 0,-8.1016 5.4,-12.1524 16.21,-12.1524 h 60.74 c 24.3,0 61.64,0.8906 112.05,2.711 32.4,1.7617 54.89,2.6914 67.5,2.6914" /><path
         id="path22"
         style="fill:#fffbe9;fill-opacity:1;fill-rule:nonzero;stroke:none"
         d="m 8045.64,697.949 c -61.22,60.301 -182.72,120.153 -364.51,179.551 -82.81,28.77 -139.51,49.949 -170.09,63.449 -30.64,13.512 -56.7,25.653 -78.31,36.461 -52.23,28.77 -90.02,59.81 -113.39,93.14 -23.42,33.29 -35.11,71.55 -35.11,114.76 0,59.39 27,107.07 81,143.09 54,35.99 125.97,54.01 216,54.01 73.79,0 139.47,-13.09 197.1,-39.15 57.59,-26.12 107.07,-65.27 148.51,-117.46 34.17,-43.2 61.16,-93.61 80.99,-151.2 19.8,-57.62 31.48,-120.6 35.1,-188.998 1.77,-10.801 5.82,-16.192 12.15,-16.192 6.3,0 9.45,5.391 9.45,16.192 0,27 0.42,60.75 1.35,101.25 0.89,40.508 2.25,103.028 4.05,187.658 1.77,57.58 3.13,97.19 4.05,118.79 0.89,21.61 1.35,37.81 1.35,48.61 0,5.39 -1.35,9.44 -4.05,12.15 -2.7,2.69 -8.55,5.82 -17.55,9.44 -73.83,16.2 -143.55,27.42 -209.25,33.75 -65.73,6.29 -141.75,9.45 -228.15,9.45 -151.2,0 -281.73,-42.31 -391.5,-126.9 -109.81,-84.63 -164.7,-191.7 -164.7,-321.3 0,-82.801 30.12,-153.48 90.46,-211.941 60.28,-58.52 177.73,-116.567 352.34,-174.149 169.17,-57.64 277.65,-107.109 325.35,-148.512 47.67,-41.429 71.55,-90.91 71.55,-148.5 0,-77.41 -26.58,-138.628 -79.64,-183.5972 -53.12,-45.0117 -125.56,-67.5 -217.36,-67.5 -70.2,0 -134.58,14.3906 -193.04,43.1992 -58.52,28.7695 -109.36,70.199 -152.55,124.199 -39.61,46.789 -71.56,103.961 -95.86,171.461 -24.3,67.5 -39.14,142.629 -44.54,225.449 0,10.801 -2.71,15.262 -8.11,13.493 -5.4,-1.801 -8.09,-7.204 -8.09,-16.204 0,-52.218 -1.35,-107.578 -4.06,-166.039 -2.7,-58.519 -7.67,-132.769 -14.85,-222.757 -1.81,-28.813 -3.16,-48.18 -4.04,-58.043 -0.94,-9.918 -1.36,-16.661 -1.36,-20.258 0,-12.61 1.36,-21.6018 4.05,-27.0002 2.71,-5.4024 7.64,-9.0195 14.85,-10.8008 5.41,-1.8086 34.17,-10.8008 86.4,-26.9883 52.19,-16.2031 101.67,-27.8906 148.5,-35.1133 34.18,-5.3984 71.55,-9.43746 112.05,-12.1484 40.51,-2.69141 84.12,-4.05078 130.96,-4.05078 163.76,0 298.76,44.97268 405,134.99978 106.19,89.992 159.29,202.5 159.29,337.5 0,88.172 -30.62,162.422 -91.79,222.75" /><path
         id="path24"
         style="fill:#fffbe9;fill-opacity:1;fill-rule:nonzero;stroke:none"
         d="M 741.801,32.4102 H 921.352 C 1025.72,30.5898 1097.27,29.6992 1136,29.6992 h 66.15 c 10.8,0 16.2,4.0508 16.2,12.1524 0,8.0976 -5.4,12.1601 -16.2,12.1601 h -94.5 c -70.2,0 -115.209,16.1875 -134.998,48.5903 -19.828,32.398 -33.332,97.199 -40.5,194.41 -1.808,35.976 -3.164,81.41 -4.05,136.34 -0.93,54.898 -1.348,127.328 -1.348,217.359 v 283.488 h 118.796 c 135,0 238.02,-36.019 309.15,-108 71.09,-72.008 106.65,-172.801 106.65,-302.398 V 472.5 c 0,-9.031 4.94,-13.488 14.85,-13.488 9.87,0 14.85,4.457 14.85,13.488 -3.63,70.199 -6.75,156.148 -9.45,257.852 -2.7,101.668 -4.05,172.339 -4.05,211.949 0,30.59 0.89,78.719 2.7,144.449 1.77,65.69 5.4,166.06 10.8,301.06 0,10.8 -4.98,16.2 -14.85,16.2 -9.91,0 -14.85,-5.4 -14.85,-16.2 v -45.9 c 0,-120.62 -35.56,-213.3 -106.65,-278.11 -71.13,-64.788 -174.15,-97.198 -309.15,-97.198 H 926.754 v 445.498 174.15 90.45 c 1.766,82.78 7.637,135.89 17.547,159.3 9.871,23.37 38.219,35.11 85.049,35.11 h 216 c 158.37,-1.82 304.27,-62.24 424,-185.52 119.69,-123.31 172.91,-232.43 208.6,-447.11 l 16.2,-129.6 c 1.77,-9.02 7.17,-13.08 16.2,-12.15 8.99,0.88 13.5,5.82 13.5,14.86 l -13.5,129.59 c -5.4,39.58 -7.79,107.9 -14.07,190.7 -6.33,82.78 -8.33,161.12 -19.13,328.52 -3.63,57.59 -6.33,101.67 -8.1,132.3 -9.03,3.59 -23.41,6.3 -43.2,8.1 -19.83,1.77 -44.13,2.7 -72.9,2.7 h -67.5 c -34.21,0 -103.53,-0.93 -207.9,-2.7 -228.61,-1.8 -397.83,-3.16 -507.597,-4.05 -109.812,-0.93 -196.211,-1.35 -259.199,-1.35 h -62.102 c -23.414,0 -58.511,0.89 -105.3,2.7 -39.61,1.78 -68.43,2.7 -86.399,2.7 h -45.902 c -10.797,0 -16.196,-4.05 -16.196,-12.14 0,-8.11 5.399,-12.15 16.196,-12.15 h 32.402 c 59.399,0 96.738,-18.02 112.051,-54.01 15.269,-36.03 24.715,-107.99 28.348,-215.99 1.769,-37.81 3.121,-84.64 4.05,-140.4 0.887,-55.81 1.352,-127.84 1.352,-216.01 V 666.91 534.602 434.699 C 587.441,378.891 585.621,332.52 583.852,295.66 582.043,258.742 579.34,226.801 575.754,199.801 570.352,144 559.973,105.73 544.703,85.0508 529.391,64.3398 495.641,54.0117 443.453,54.0117 h -24.301 c -10.8,0 -16.203,-4.0625 -16.203,-12.1601 0,-8.1016 5.403,-12.1524 16.203,-12.1524 h 52.649 c 29.703,0 84.121,0.8906 163.351,2.711 h 106.649" /><path
         id="path26"
         style="fill:#fffbe9;fill-opacity:1;fill-rule:nonzero;stroke:none"
         d="m 2856.94,321.301 c -0.93,-34.211 -1.35,-64.789 -1.35,-91.789 0,-79.231 14.39,-136.8206 43.2,-172.8128 28.77,-35.9804 76.49,-53.99998 143.1,-53.99998 66.57,0 137.24,30.13278 211.95,90.46098 74.67,60.2808 126.16,114.6988 172.99,192.1288 8.99,14.371 7.17,24.293 -5.4,29.691 -12.61,5.399 -21.6,2.7 -27,-8.101 -19.83,-46.828 -33.94,-72.43 -60.94,-105.719 -27,-33.328 -51.3,-49.961 -72.9,-49.961 -23.41,0 -40.08,14.852 -49.95,44.563 -9.91,29.687 -14.85,81.41 -14.85,155.238 0,23.371 0.42,52.199 1.35,86.41 0.89,34.172 2.24,90.86 4.05,170.09 3.59,91.801 5.82,158.84 6.75,201.16 0.89,42.262 1.35,78.719 1.35,109.34 0,163.77 -42.78,286.2 -128.25,367.2 -85.51,81 -214.65,121.5 -387.45,121.5 -82.81,0 -176.43,-18.47 -280.8,-55.35 -104.41,-36.9 -193.51,-82.34 -267.3,-136.35 -39.61,-27 -69.78,-56.28 -90.45,-87.75 -20.71,-31.5 -31.66,-62.57 -31.05,-93.15 3.29,-164.03 207.67,-135.971 281.09,-81.248 50.45,41.367 69.45,90.698 73.96,104.198 4.47,13.5 12.15,34.64 22.95,63.45 17.97,52.19 32.4,90.45 43.2,114.76 10.8,24.29 22.49,45.44 35.1,63.44 19.79,28.77 44.09,50.38 72.9,64.8 28.77,14.39 60.29,21.6 94.5,21.6 82.77,0 141.29,-35.1 175.5,-105.3 34.17,-70.2 52.19,-190.8 54,-361.8 l -194.4,-75.59 C 2437.98,746.98 2262.48,657.871 2156.29,575.102 2050.06,492.289 1996.99,400.488 1996.99,299.699 1996.99,215.07 2028.93,144 2092.84,86.3984 2156.71,28.8086 2237.29,0 2334.49,0 c 102.6,0 203.39,40.5 302.4,121.512 98.97,80.988 173.69,176.379 224.1,286.187 -1.81,-23.41 -3.16,-52.23 -4.05,-86.398 m -446.85,321.301 c 57.59,61.168 151.2,118.796 280.8,172.796 l 186.3,81 v -10.796 c 0,-16.192 -1.35,-59.403 -4.05,-129.602 -2.7,-70.199 -5.86,-168.328 -9.45,-294.301 -32.4,-77.41 -76.95,-143.551 -133.65,-198.437 -56.7,-54.942 -115.68,-81.473 -176.85,-79.653 -68.43,1.762 -123.78,24.711 -166.05,68.84 -42.31,44.102 -63.45,101.25 -63.45,171.449 0,84.59 28.77,157.493 86.4,218.704" /><path
         id="path28"
         style="fill:#fffbe9;fill-opacity:1;fill-rule:nonzero;stroke:none"
         d="m 4458.42,1312.92 c -15.13,43.22 -43.47,74.55 -85.09,93.96 -66.88,31.18 -142.21,21.76 -217.05,-31.96 -74.81,-53.79 -134.3,-116.06 -190.43,-236.43 -24.57,-52.67 -46.03,-118.89 -58.02,-180.849 v 42.939 c 0,79.1 -11.72,158.19 -35.06,237.33 -23.39,79.1 -49.48,132.15 -78.22,159.11 -3.62,3.59 -6.31,5.83 -8.08,6.75 -1.82,0.88 -4.52,-0.47 -8.11,-4.05 -21.56,-19.79 -73.26,-52.17 -155.06,-97.09 -81.83,-44.96 -138.9,-73.74 -171.25,-86.3 -3.62,-1.81 -5.39,-4.04 -5.39,-6.74 0,-2.7 1.77,-5.86 5.39,-9.44 43.15,-39.57 74.59,-75.98 94.39,-109.22 19.77,-33.29 29.67,-65.18 29.67,-95.739 V 350.629 c 0,-44.957 -0.93,-83.18 -2.7,-114.617 -1.81,-31.473 -4.51,-57.981 -8.09,-79.551 -5.39,-37.762 -15.76,-64.3126 -31.01,-79.5626 -5,-5 -11.87,-9.1679 -20.6,-12.5273 -0.04,-0.0117 -0.07,-0.0313 -0.12,-0.0391 -2.53,-0.9804 -5.3,-1.8515 -8.15,-2.6914 -0.85,-0.2422 -1.7,-0.4804 -2.57,-0.7187 -2.44,-0.6602 -4.99,-1.2617 -7.64,-1.8203 -1.64,-0.3516 -3.33,-0.6602 -5.05,-0.9727 -2.21,-0.3984 -4.44,-0.7969 -6.79,-1.1289 -2.89,-0.418 -5.92,-0.7812 -9.01,-1.1016 -1.48,-0.1484 -2.89,-0.3476 -4.4,-0.4882 -10.21,-0.8985 -21.42,-1.3789 -33.7,-1.3789 -10.81,0 -16.22,-4.0508 -16.22,-12.1602 0,-8.1094 5.41,-12.1719 16.22,-12.1719 h 17.9 50.46 c 0.1,0 0.22,0 0.32,0 h 0.25 c 29.74,0 78.82,0.8906 147.32,2.7227 21.39,0.8594 39.33,1.5273 53.89,1.9883 l -0.01,0.0195 c 14.33,0.4414 25.31,0.6601 32.86,0.6601 h 31.01 c 8.98,0 27.86,-0.4609 56.63,-1.3398 28.74,-0.918 80.92,-1.3398 156.43,-1.3398 46.73,-1.8204 77.28,-2.711 91.69,-2.711 H 4102 c 10.79,0 16.17,4.0508 16.17,12.1406 0,8.0899 -5.38,12.129 -16.17,12.129 H 3910.52 V 709.32 c 0,17.719 0.14,34.352 0.35,50.45 0,0 -3.37,150.992 27.62,220.16 22.87,46.48 48.04,60.18 82.4,77.66 34.36,17.43 94.78,19.83 177.8,15.51 82.22,-2.18 139.97,5.28 173.23,22.33 33.31,17.04 58.93,44.87 76.96,83.54 21.46,46.04 24.65,90.69 9.54,133.95" /><path
         id="path30"
         style="fill:#fffbe9;fill-opacity:1;fill-rule:nonzero;stroke:none"
         d="m 1178.54,2981.09 -334.407,2.7 -369.485,-5.39 334.426,908.85 369.466,-903.46 z m 3160.72,-671.52 c -55.75,-1.81 -90.81,9.44 -105.18,33.71 -14.41,24.27 -21.58,76.86 -21.58,157.77 v 614.9 c 0,181.56 -35.52,317.76 -106.52,408.57 -71.05,90.77 -177.58,136.19 -319.58,136.19 -88.12,0 -172.6,-24.73 -253.51,-74.16 -80.91,-49.48 -160.04,-126.34 -237.33,-230.58 -23.39,98.85 -70.12,174.37 -140.24,226.53 -70.12,52.13 -158.23,78.21 -264.29,78.21 -89.93,0 -174.41,-24.73 -253.51,-74.16 -79.14,-49.48 -157.35,-126.34 -234.63,-230.58 0,53.94 -10.79,110.1 -32.36,168.55 -21.58,58.4 -46.77,101.13 -75.51,128.11 -3.63,3.58 -6.32,5.81 -8.09,6.73 -1.82,0.88 -4.51,-0.45 -8.09,-4.04 -21.58,-19.8 -74.17,-52.17 -157.77,-97.09 -83.61,-44.96 -142.52,-73.75 -176.65,-86.3 -3.62,-1.81 -5.39,-4.05 -5.39,-6.75 0,-2.69 1.77,-5.85 5.39,-9.42 43.15,-39.57 74.59,-75.99 94.39,-109.23 19.77,-33.29 29.67,-65.2 29.67,-95.75 v -644.56 c 0,-124.04 -7.21,-204.54 -21.58,-241.36 -13.47,-34.48 -46.47,-51.62 -97.47,-54.43 h -10.36 c -44.73,2.26 -84.08,23.42 -117.32,66.57 -33.29,43.14 -75.98,120.43 -128.11,231.92 -19.8,46.73 -43.15,100.67 -70.11,161.83 -26.97,61.09 -56.64,132.13 -89,213.04 l -469.26,1159.67 c -3.62,7.17 -8.09,12.13 -13.49,14.83 -5.39,2.69 -13.48,4.04 -24.27,4.04 H 906.148 c -7.199,0 -13.476,-1.8 -18.867,-5.38 -5.402,-3.64 -9.914,-9.03 -13.492,-16.2 L 439.59,2989.18 c -43.149,-120.47 -83.598,-222.95 -121.363,-307.44 -37.758,-84.52 -74.629,-158.23 -110.567,-221.15 -26.972,-48.54 -56.211,-85.41 -87.648,-110.57 -31.4807,-25.2 -63.3792,-37.76 -95.7425,-37.76 h -8.0859 c -3.5859,0 -7.16407,-0.91 -10.79297,-2.69 C 1.8125,2307.76 0,2305.06 0,2301.48 c 0,-5.4 1.34766,-9.44 4.03906,-12.14 2.69922,-2.7 6.75394,-4.03 12.14454,-4.03 h 49.8867 c 18.8828,0 48.0817,0.88 87.6527,2.68 25.156,1.77 42.687,2.71 52.586,2.71 h 22.921 49.903 c 26.039,0 75.926,-0.94 149.668,-2.71 77.289,-1.8 129.453,-2.68 156.418,-2.68 h 53.941 c 10.793,0 18.879,1.75 24.27,5.39 5.398,3.58 8.09,8.08 8.09,13.47 0,3.59 -1.813,6.76 -5.391,9.45 -3.617,2.69 -8.09,4.04 -13.477,4.04 h -6.754 c -2.687,0 -7.671,-0.93 -14.828,-2.7 -17.988,-1.81 -31.937,-3.15 -41.8,-4.03 -9.899,-0.94 -19.336,-1.36 -28.321,-1.36 -61.14,0 -108.34,17.95 -141.59,53.93 -33.289,35.96 -49.89,86.31 -49.89,151.03 -1.809,55.71 5.398,120.43 21.582,194.18 16.179,73.71 37.75,147.41 64.722,221.15 l 10.786,26.96 c 154.613,-5.39 251.703,-8.55 291.265,-9.43 39.524,-0.94 73.696,-1.36 102.485,-1.36 l 331.711,8.09 c 32.37,-79.13 59.34,-147.44 80.91,-204.96 21.58,-57.56 39.53,-106.98 53.94,-148.33 39.52,-113.27 57.05,-190.12 52.59,-230.58 -4.51,-40.46 -39.11,-60.68 -103.83,-60.68 h -56.64 c -10.79,0 -14.83,-4.04 -12.13,-12.13 2.69,-8.1 9.44,-12.13 20.22,-12.13 16.18,0 45.85,0.42 89,1.33 43.15,0.89 117.74,2.25 223.84,4.06 68.31,1.76 114.16,2.69 137.54,2.69 h 43.15 24.28 c 10.78,0 29.66,-0.93 56.63,-2.69 43.15,-1.81 75.51,-3.17 97.09,-4.06 14.13,-0.6 26.99,-0.97 38.8,-1.16 0.58,-0.03 1,-0.17 1.62,-0.17 h 60.68 c 24.27,0 61.56,0.88 111.92,2.68 32.36,1.77 54.82,2.71 67.42,2.71 h 26.97 c 8.97,0 28.74,-0.47 59.33,-1.36 30.55,-0.93 84.49,-1.35 161.81,-1.35 50.32,-1.8 83.14,-2.68 98.44,-2.68 h 28.32 c 10.78,0 16.18,4.03 16.18,12.13 0,8.09 -5.4,12.13 -16.18,12.13 h -148.33 v 1016.72 c 55.71,75.52 106.95,128.11 153.72,157.78 46.73,29.66 100.67,44.49 161.81,44.49 84.49,0 146.99,-32.83 187.44,-98.43 40.45,-65.65 60.68,-166.79 60.68,-303.41 l 2.7,-547.45 c 0,-120.49 -7.21,-195.54 -21.58,-225.19 -14.41,-29.68 -56.63,-44.51 -126.75,-44.51 -10.79,0 -16.18,-4.04 -16.18,-12.13 0,-8.1 5.39,-12.13 16.18,-12.13 h 57.98 c 22.46,0 56.17,0.88 101.13,2.68 28.74,1.77 48.97,2.71 60.68,2.71 h 25.62 c 8.98,0 29.67,-0.47 62.03,-1.36 32.36,-0.93 90.77,-1.35 175.3,-1.35 53.94,-1.8 89,-2.68 105.18,-2.68 h 29.66 c 10.79,0 16.19,4.03 16.19,12.13 0,8.09 -5.4,12.13 -16.19,12.13 -62.95,-1.81 -102.06,10.33 -117.31,36.41 -15.3,26.04 -22.92,77.74 -22.92,155.07 v 825.24 c 55.7,77.29 106.94,130.34 153.72,159.12 46.73,28.74 100.67,43.15 161.81,43.15 84.49,0 148.75,-33.7 192.83,-101.12 44.03,-67.43 66.96,-167.68 68.77,-300.72 v -547.45 c 0,-120.49 -7.67,-195.54 -22.92,-225.19 -15.3,-29.68 -59.8,-44.51 -133.5,-44.51 -10.79,0 -16.18,-4.04 -16.18,-12.13 0,-8.1 5.39,-12.13 16.18,-12.13 h 57.98 c 22.46,0 57.06,0.88 103.83,2.68 28.74,1.77 48.97,2.71 60.68,2.71 h 25.62 71.47 c 27.86,0 72.35,-0.94 133.5,-2.71 52.12,-1.8 89.42,-2.68 111.92,-2.68 h 52.59 c 10.79,0 16.18,4.03 16.18,12.13 0,8.09 -5.39,12.13 -16.18,12.13" /></g></g></svg>