<svg width="120" height="40" viewBox="0 0 120 40" fill="none" xmlns="http://www.w3.org/2000/svg">
<g clip-path="url(#clip0)">
<path d="M36.508 39.0758C34.224 39.0758 33.788 38.784 33.788 33.7326V0.362626C33.788 0.122842 33.056 -0.0729817 32.912 0.022932C31.26 0.946101 27.028 2.35683 24.6 2.79644C24.2 2.84439 24.2 3.284 24.6 3.23604C27.028 2.79644 27.76 2.8364 27.76 7.02063V25.6359C25.66 31.7863 21.856 35.3831 16.432 35.3831C10.064 35.3831 5.54 31.3507 5.54 25.0364C5.5384 24.2574 5.58784 23.4791 5.688 22.7065H19.6C22.76 22.7065 23.2 22.123 23.292 20.8122C23.392 18.0907 21.204 14.7417 14.544 14.7417C6.756 14.7417 0 21.3477 0 28.3414C0 35.3351 4.764 39.999 12.2 39.999C14.926 40.0307 17.5944 39.2151 19.836 37.6651C23.3 35.3272 26.148 30.9831 27.76 26.595V33.7326C27.76 38.4923 27.468 39.0758 25.36 39.0758C24.96 39.0758 24.96 39.5114 25.36 39.5114C26.768 39.5114 30.708 39.4155 31.436 39.4155C32.164 39.4155 35.084 39.5114 36.492 39.5114C36.5229 39.5166 36.5545 39.5151 36.5847 39.5071C36.615 39.4991 36.6432 39.4848 36.6675 39.465C36.6917 39.4453 36.7115 39.4206 36.7254 39.3926C36.7394 39.3646 36.7472 39.3339 36.7483 39.3027C36.7495 39.2714 36.7439 39.2403 36.7321 39.2114C36.7202 39.1824 36.7023 39.1564 36.6796 39.1349C36.6568 39.1134 36.6298 39.097 36.6002 39.0868C36.5706 39.0766 36.5392 39.0729 36.508 39.0758ZM12.64 15.5849C15.84 15.5849 17.112 17.8189 17.112 19.7132C17.112 20.5405 16.916 21.2199 16.432 21.6075C15.8366 21.9466 15.1719 22.1461 14.488 22.191C12.152 22.2909 9.48 22.3868 5.736 22.4348C6.464 18.0427 9.092 15.5849 12.64 15.5849Z" fill="#00353C"/>
<path d="M48.42 39.0758C46.132 39.0758 45.696 38.784 45.696 33.7326V0.362626C45.696 0.122842 44.968 -0.0729817 44.82 0.022932C43.168 0.946101 38.94 2.35683 36.508 2.79644C36.108 2.84439 36.108 3.284 36.508 3.23604C38.94 2.79644 39.668 2.8364 39.668 7.02063V33.7326C39.668 38.4923 39.376 39.0758 37.268 39.0758C36.868 39.0758 36.868 39.5114 37.268 39.5114C38.68 39.5114 42.616 39.4155 43.348 39.4155C44.08 39.4155 46.992 39.5114 48.404 39.5114C48.4349 39.5166 48.4665 39.5151 48.4967 39.5071C48.527 39.4991 48.5552 39.4848 48.5795 39.465C48.6037 39.4453 48.6235 39.4206 48.6374 39.3926C48.6514 39.3646 48.6592 39.3339 48.6603 39.3027C48.6615 39.2714 48.6559 39.2403 48.6441 39.2114C48.6322 39.1824 48.6143 39.1564 48.5916 39.1349C48.5688 39.1134 48.5418 39.097 48.5122 39.0868C48.4826 39.0766 48.4512 39.0729 48.42 39.0758Z" fill="#00353C"/>
<path d="M54.7999 11.0984C55.3428 11.137 55.8878 11.0635 56.401 10.8824C56.9142 10.7014 57.3846 10.4167 57.7829 10.0461C58.1812 9.67547 58.4988 9.22689 58.716 8.72828C58.9332 8.22967 59.0453 7.69171 59.0453 7.14794C59.0453 6.60416 58.9332 6.06621 58.716 5.5676C58.4988 5.06899 58.1812 4.6204 57.7829 4.24979C57.3846 3.87918 56.9142 3.59449 56.401 3.41344C55.8878 3.2324 55.3428 3.15889 54.7999 3.19749C54.269 3.18064 53.7401 3.27055 53.2447 3.4619C52.7493 3.65324 52.2974 3.94211 51.9159 4.31135C51.5344 4.68059 51.231 5.12267 51.0239 5.61133C50.8167 6.09998 50.71 6.62525 50.71 7.15593C50.71 7.68661 50.8167 8.21188 51.0239 8.70053C51.231 9.18919 51.5344 9.63127 51.9159 10.0005C52.2974 10.3697 52.7493 10.6586 53.2447 10.85C53.7401 11.0413 54.269 11.1312 54.7999 11.1144V11.0984Z" fill="#00353C"/>
<path d="M61.0158 39.0781C58.2918 39.0781 58.1478 38.3467 58.1478 34.1705V15.0836C58.1478 14.8399 57.4158 14.648 57.2718 14.7439C55.2718 15.8589 51.5358 17.4615 49.1038 17.997C48.7038 18.0929 48.8598 18.4846 49.2518 18.3967C51.6798 17.8651 52.1198 17.997 52.1198 21.7017V34.1705C52.1198 38.3467 51.9718 39.0781 49.1998 39.0781C48.7998 39.0781 48.7998 39.5137 49.1998 39.5137C50.6118 39.5137 54.4998 39.4177 55.2278 39.4177C55.9558 39.4177 59.6038 39.5137 61.0158 39.5137C61.4038 39.5137 61.4038 39.0781 61.0158 39.0781Z" fill="#00353C"/>
<path d="M74.5005 14.7422C66.3805 14.7422 60.9365 20.8607 60.9365 27.8544C60.9365 35.1878 66.2365 39.9995 73.7365 39.9995C81.7085 39.9995 87.2005 33.2935 87.2005 27.0311C87.2005 19.5499 82.0005 14.7422 74.5005 14.7422ZM74.5485 39.4639C69.7485 39.4639 67.8405 33.0018 67.8405 27.0311C67.8405 19.9375 69.0405 15.2258 73.9165 15.2258C78.4885 15.2258 80.4805 21.7359 80.4805 27.8064C80.4805 34.996 78.9245 39.4639 74.5485 39.4639Z" fill="#00353C"/>
<path d="M119.452 32.2741C118.04 35.3354 116.632 36.4504 115.076 36.4504C113.036 36.4504 111.916 34.608 111.916 31.1072V18.3826H118.092C118.672 17.899 119.792 15.3733 119.792 15.2734C119.422 15.2146 119.046 15.1985 118.672 15.2255H112V10.3898C112 10.0501 111.808 10.0981 111.564 10.2939L105.672 15.2494H95.8798V10.3898C95.8798 10.0501 95.6838 10.0981 95.4438 10.2939L86.2078 18.0429C86.1078 18.1428 86.1558 18.3826 86.2078 18.3826H89.8998V32.7137C89.8998 37.3735 90.9718 39.9992 94.6158 39.9992C94.8836 39.9975 95.151 39.9761 95.4158 39.9352C95.6774 39.9144 95.9362 39.8662 96.1878 39.7913C99.0398 38.9641 101.62 36.0147 102.772 34.4162C103.696 33.1293 105.392 29.8963 106.024 28.6813V32.7137C106.024 37.3735 107.092 39.9992 110.736 39.9992C114.58 39.9992 117.836 36.0028 119.936 32.5658C119.959 32.5341 119.976 32.4978 119.985 32.4591C119.994 32.4205 119.994 32.3805 119.987 32.3416C119.979 32.3027 119.964 32.2659 119.941 32.2334C119.918 32.201 119.889 32.1737 119.855 32.1532C119.821 32.1327 119.783 32.1196 119.744 32.1146C119.704 32.1097 119.664 32.113 119.626 32.1244C119.589 32.1358 119.553 32.155 119.523 32.1808C119.493 32.2066 119.469 32.2384 119.452 32.2741ZM104.56 30.2759C103.432 32.426 102.256 34.4042 100.404 35.8709C100.121 36.107 99.7906 36.2789 99.4349 36.3748C99.0792 36.4707 98.7069 36.4883 98.3438 36.4264C96.6838 36.0867 95.7838 34.2803 95.7838 31.1391V18.3826H106.036V27.6303L104.56 30.2759Z" fill="#00353C"/>
</g>
<defs>
<clipPath id="clip0">
<rect width="120" height="40" fill="white"/>
</clipPath>
</defs>
</svg>
